<?xml version="1.0" encoding="UTF-8"?>
<svg version="1.1" xmlns="http://www.w3.org/2000/svg" width="340" height="131">
<path d="M0 0 C112.2 0 224.4 0 340 0 C340 43.23 340 86.46 340 131 C227.8 131 115.6 131 0 131 C0 87.77 0 44.54 0 0 Z " fill="#222622" transform="translate(0,0)"/>
<path d="M0 0 C0.00546844 1.41820793 0.00546844 1.41820793 0.01104736 2.86506653 C0.04796042 11.76760545 0.10569218 20.66979728 0.18390274 29.57207203 C0.22344193 34.14905563 0.2555986 38.72584498 0.27099609 43.30297852 C0.28612054 47.7187546 0.3204902 52.13399689 0.36830902 56.54953575 C0.38316652 58.23561658 0.39104351 59.92177361 0.39188385 61.60791969 C0.39424227 63.96681508 0.4212277 66.32422166 0.45410156 68.68286133 C0.4490712 69.38273163 0.44404083 70.08260193 0.43885803 70.80368042 C0.44152865 72.98067975 0.44152865 72.98067975 1 76 C2.92496597 77.85436322 2.92496597 77.85436322 5 79 C5 79.66 5 80.32 5 81 C-1.93 81 -8.86 81 -16 81 C-16.33 80.34 -16.66 79.68 -17 79 C-17.845625 79.495 -18.69125 79.99 -19.5625 80.5 C-26.19045614 83.32702619 -34.64817769 83.12477869 -41.5390625 81.34375 C-48.48566201 78.23253169 -53.27507882 71.95674719 -56 65 C-56.48138781 61.22290023 -56.50974734 57.4914013 -56.5 53.6875 C-56.52835938 52.69298828 -56.55671875 51.69847656 -56.5859375 50.67382812 C-56.60663706 42.79247231 -54.72115932 36.95242666 -49.25976562 31.15161133 C-41.87841105 24.25859906 -35.48350594 23.66893499 -25.62109375 23.69921875 C-22 24 -22 24 -16 26 C-16.33 20.39 -16.66 14.78 -17 9 C-19.475 8.01 -19.475 8.01 -22 7 C-21.67 6.01 -21.34 5.02 -21 4 C-18.20176546 3.11086915 -15.54753325 2.41646758 -12.6875 1.8125 C-11.91470703 1.63525391 -11.14191406 1.45800781 -10.34570312 1.27539062 C-6.73746594 0.47183651 -3.73752639 0 0 0 Z " fill="#F7EFDF" transform="translate(194,20)"/>
<path d="M0 0 C0.00546844 1.41820793 0.00546844 1.41820793 0.01104736 2.86506653 C0.04796042 11.76760545 0.10569218 20.66979728 0.18390274 29.57207203 C0.22344193 34.14905563 0.2555986 38.72584498 0.27099609 43.30297852 C0.28612054 47.7187546 0.3204902 52.13399689 0.36830902 56.54953575 C0.38316652 58.23561658 0.39104351 59.92177361 0.39188385 61.60791969 C0.39424227 63.96681508 0.4212277 66.32422166 0.45410156 68.68286133 C0.4490712 69.38273163 0.44404083 70.08260193 0.43885803 70.80368042 C0.44152865 72.98067975 0.44152865 72.98067975 1 76 C2.92496597 77.85436322 2.92496597 77.85436322 5 79 C5 79.66 5 80.32 5 81 C-1.93 81 -8.86 81 -16 81 C-16.33 80.34 -16.66 79.68 -17 79 C-17.845625 79.495 -18.69125 79.99 -19.5625 80.5 C-26.19045614 83.32702619 -34.64817769 83.12477869 -41.5390625 81.34375 C-48.48566201 78.23253169 -53.27507882 71.95674719 -56 65 C-56.48138781 61.22290023 -56.50974734 57.4914013 -56.5 53.6875 C-56.52835937 52.69298828 -56.55671875 51.69847656 -56.5859375 50.67382812 C-56.60663706 42.79247231 -54.72115932 36.95242666 -49.25976562 31.15161133 C-41.87841105 24.25859906 -35.48350594 23.66893499 -25.62109375 23.69921875 C-22 24 -22 24 -16 26 C-16.33 20.39 -16.66 14.78 -17 9 C-19.475 8.01 -19.475 8.01 -22 7 C-21.67 6.01 -21.34 5.02 -21 4 C-18.20176546 3.11086915 -15.54753325 2.41646758 -12.6875 1.8125 C-11.91470703 1.63525391 -11.14191406 1.45800781 -10.34570312 1.27539062 C-6.73746594 0.47183651 -3.73752639 0 0 0 Z " fill="#F7EFDF" transform="translate(129,20)"/>
<path d="M0 0 C6.72541074 7.08894646 7.3125 12.53834862 7.3125 22.4375 C-4.2375 22.4375 -15.7875 22.4375 -27.6875 22.4375 C-27.00527726 34.40729721 -27.00527726 34.40729721 -20.6875 43.4375 C-15.26876043 46.14686978 -9.49891557 45.80150167 -3.6875 44.4375 C-0.35941761 42.55336085 -0.35941761 42.55336085 2.3125 40.4375 C4.6875 39.6875 4.6875 39.6875 6.3125 39.4375 C4.91372753 44.72175154 1.652755 47.42871765 -2.6875 50.4375 C-9.93783789 54.32160959 -17.60127585 54.35018564 -25.6875 53.4375 C-31.73393639 51.53428233 -36.72081007 48.42419591 -40.6875 43.4375 C-41.1515625 42.90511719 -41.615625 42.37273437 -42.09375 41.82421875 C-47.62389419 34.15882444 -46.9956594 23.4279466 -45.6875 14.4375 C-43.28470049 7.03687751 -38.2453955 2.35671566 -31.6875 -1.5625 C-30.65625 -2.18125 -29.625 -2.8 -28.5625 -3.4375 C-19.08236326 -7.09879419 -8.44875351 -4.912066 0 0 Z " fill="#F4EDDE" transform="translate(61.6875,48.5625)"/>
<path d="M0 0 C4.34575379 3.15829924 6.64588243 6.67067112 9.05859375 11.49609375 C9.05859375 15.45609375 9.05859375 19.41609375 9.05859375 23.49609375 C-2.49140625 23.49609375 -14.04140625 23.49609375 -25.94140625 23.49609375 C-24.20615916 35.2873944 -24.20615916 35.2873944 -18.08203125 44.25390625 C-13.50975535 46.90716124 -7.65434148 47.07237084 -2.55078125 45.98828125 C0.23451849 45.00826838 2.55726138 44.00234115 4.65234375 41.88671875 C6.05859375 40.49609375 6.05859375 40.49609375 8.05859375 40.49609375 C7.33497617 45.13336132 4.7815178 47.00214294 1.28125 49.87890625 C-6.13664049 55.27610601 -13.97706952 55.24137233 -22.94140625 54.49609375 C-30.17318363 53.18872031 -35.98451973 48.50109855 -40.296875 42.66015625 C-44.92520081 35.00754535 -44.69856519 26.15442893 -43.94140625 17.49609375 C-41.58252843 8.88906639 -35.51085752 2.95661054 -28.07421875 -1.6640625 C-19.2697298 -5.72621942 -8.23325017 -4.77231085 0 0 Z " fill="#F5EDDE" transform="translate(276.94140625,47.50390625)"/>
<path d="M0 0 C0.00364563 0.94547195 0.00729126 1.89094391 0.01104736 2.86506653 C0.04796042 11.76760545 0.10569218 20.66979728 0.18390274 29.57207203 C0.22344193 34.14905563 0.2555986 38.72584498 0.27099609 43.30297852 C0.28612054 47.7187546 0.3204902 52.13399689 0.36830902 56.54953575 C0.38316652 58.23561658 0.39104351 59.92177361 0.39188385 61.60791969 C0.39424227 63.96681508 0.4212277 66.32422166 0.45410156 68.68286133 C0.4490712 69.38273163 0.44404083 70.08260193 0.43885803 70.80368042 C0.44152865 72.98067975 0.44152865 72.98067975 1 76 C2.92496597 77.85436322 2.92496597 77.85436322 5 79 C5 79.66 5 80.32 5 81 C-1.93 81 -8.86 81 -16 81 C-16.80408907 77.78364371 -17.14434632 75.47188124 -17.20532227 72.23144531 C-17.22526749 71.29077209 -17.24521271 70.35009888 -17.26576233 69.38092041 C-17.28247482 68.37349792 -17.29918732 67.36607544 -17.31640625 66.328125 C-17.3475779 64.77179352 -17.3475779 64.77179352 -17.37937927 63.184021 C-17.44471408 59.87274742 -17.50368517 56.56139518 -17.5625 53.25 C-17.60570049 51.00389815 -17.64931527 48.75780422 -17.69335938 46.51171875 C-17.80037903 41.00789543 -17.90217522 35.50399402 -18 30 C-18.66 29.67 -19.32 29.34 -20 29 C-19.67 27.68 -19.34 26.36 -19 25 C-18.01 25.33 -17.02 25.66 -16 26 C-16.33 20.39 -16.66 14.78 -17 9 C-19.475 8.01 -19.475 8.01 -22 7 C-21.67 6.01 -21.34 5.02 -21 4 C-18.20176546 3.11086915 -15.54753325 2.41646758 -12.6875 1.8125 C-11.91470703 1.63525391 -11.14191406 1.45800781 -10.34570312 1.27539062 C-6.73746594 0.47183651 -3.73752639 0 0 0 Z " fill="#F9F1E2" transform="translate(194,20)"/>
<path d="M0 0 C0.00364563 0.94547195 0.00729126 1.89094391 0.01104736 2.86506653 C0.04796042 11.76760545 0.10569218 20.66979728 0.18390274 29.57207203 C0.22344193 34.14905563 0.2555986 38.72584498 0.27099609 43.30297852 C0.28612054 47.7187546 0.3204902 52.13399689 0.36830902 56.54953575 C0.38316652 58.23561658 0.39104351 59.92177361 0.39188385 61.60791969 C0.39424227 63.96681508 0.4212277 66.32422166 0.45410156 68.68286133 C0.4490712 69.38273163 0.44404083 70.08260193 0.43885803 70.80368042 C0.44152865 72.98067975 0.44152865 72.98067975 1 76 C2.92496597 77.85436322 2.92496597 77.85436322 5 79 C5 79.66 5 80.32 5 81 C-1.93 81 -8.86 81 -16 81 C-16.80408907 77.78364371 -17.14434632 75.47188124 -17.20532227 72.23144531 C-17.22526749 71.29077209 -17.24521271 70.35009888 -17.26576233 69.38092041 C-17.28247482 68.37349792 -17.29918732 67.36607544 -17.31640625 66.328125 C-17.3475779 64.77179352 -17.3475779 64.77179352 -17.37937927 63.184021 C-17.44471408 59.87274742 -17.50368517 56.56139518 -17.5625 53.25 C-17.60570049 51.00389815 -17.64931527 48.75780422 -17.69335938 46.51171875 C-17.80037903 41.00789543 -17.90217522 35.50399402 -18 30 C-18.66 29.67 -19.32 29.34 -20 29 C-19.67 27.68 -19.34 26.36 -19 25 C-18.01 25.33 -17.02 25.66 -16 26 C-16.33 20.39 -16.66 14.78 -17 9 C-19.475 8.01 -19.475 8.01 -22 7 C-21.67 6.01 -21.34 5.02 -21 4 C-18.20176546 3.11086915 -15.54753325 2.41646758 -12.6875 1.8125 C-11.91470703 1.63525391 -11.14191406 1.45800781 -10.34570312 1.27539062 C-6.73746594 0.47183651 -3.73752639 0 0 0 Z " fill="#F9F1E2" transform="translate(129,20)"/>
<path d="M0 0 C0.00364563 0.65510559 0.00729126 1.31021118 0.01104736 1.98516846 C0.05283113 8.79857971 0.12214798 15.61131475 0.20751953 22.42431641 C0.23575956 24.96754191 0.2569589 27.51085567 0.27099609 30.05419922 C0.29238277 33.70846853 0.33901391 37.36167314 0.390625 41.015625 C0.39185364 42.15429016 0.39308228 43.29295532 0.39434814 44.46612549 C0.41406677 45.52692322 0.4337854 46.58772095 0.45410156 47.68066406 C0.46298401 48.61332092 0.47186646 49.54597778 0.48101807 50.50689697 C0.89202931 53.6229087 0.89202931 53.6229087 5 57 C-4.24 57 -13.48 57 -23 57 C-23 56.34 -23 55.68 -23 55 C-20.525 54.505 -20.525 54.505 -18 54 C-17.87651804 47.93114683 -17.78571629 41.86302258 -17.7253418 35.79321289 C-17.7001778 33.72797919 -17.66604316 31.66283471 -17.62280273 29.59790039 C-17.56223384 26.63144953 -17.53380964 23.66617448 -17.51171875 20.69921875 C-17.48591232 19.7741301 -17.4601059 18.84904144 -17.43351746 17.8959198 C-17.43246232 15.49128763 -17.45729882 13.34300906 -18 11 C-20.38593105 8.94860979 -20.38593105 8.94860979 -23 8 C-23 7.34 -23 6.68 -23 6 C-19.91968584 4.9905304 -16.8353041 3.99410379 -13.75 3 C-12.87730469 2.71382812 -12.00460938 2.42765625 -11.10546875 2.1328125 C-10.26113281 1.86210938 -9.41679687 1.59140625 -8.546875 1.3125 C-7.77182617 1.06113281 -6.99677734 0.80976562 -6.19824219 0.55078125 C-4 0 -4 0 0 0 Z " fill="#F8F0E0" transform="translate(225,44)"/>
<path d="M0 0 C2.64916992 0.88793945 2.64916992 0.88793945 5 3 C5.73138627 6.44392411 5.57961435 9.84918644 5.48828125 13.35546875 C5.48120651 14.37224197 5.47413177 15.3890152 5.46684265 16.43659973 C5.43882918 19.68764484 5.37607585 22.93697453 5.3125 26.1875 C5.28742621 28.38994911 5.26461145 30.59242518 5.24414062 32.79492188 C5.1889801 38.19720096 5.10528492 43.59847795 5 49 C0.20605563 51.00257746 -2.98865587 51.56540973 -8 50 C-11.99805928 46.89039834 -14.18942326 43.69729909 -16 39 C-16.43977028 34.86944737 -16.418534 30.77524145 -16.375 26.625 C-16.38660156 25.52671875 -16.39820313 24.4284375 -16.41015625 23.296875 C-16.38402201 16.03155603 -15.97426049 9.8600572 -11.38671875 3.90625 C-7.58161545 0.75719899 -5.14533066 -1.00669513 0 0 Z " fill="#232824" transform="translate(172,47)"/>
<path d="M0 0 C2.65307617 0.8840332 2.65307617 0.8840332 5 3 C5.73092361 6.444085 5.57961647 9.84910509 5.48828125 13.35546875 C5.48120651 14.37224197 5.47413177 15.3890152 5.46684265 16.43659973 C5.43882918 19.68764484 5.37607585 22.93697453 5.3125 26.1875 C5.28742621 28.38994911 5.26461145 30.59242518 5.24414062 32.79492188 C5.1889801 38.19720096 5.10528492 43.59847795 5 49 C0.20605563 51.00257746 -2.98865587 51.56540973 -8 50 C-11.99854872 46.89001766 -14.18323291 43.69501609 -16 39 C-16.46481707 34.89068804 -16.46409492 30.81938348 -16.4375 26.6875 C-16.45748047 25.59759766 -16.47746094 24.50769531 -16.49804688 23.38476562 C-16.49351954 15.85581027 -15.57204707 9.29101736 -10.62329102 3.34619141 C-7.20545584 0.1327469 -4.58694432 -0.78075648 0 0 Z " fill="#232823" transform="translate(107,47)"/>
<path d="M0 0 C0.7734375 -0.00773437 1.546875 -0.01546875 2.34375 -0.0234375 C5.01056642 0.4693438 5.86181317 1.2473549 7.5 3.375 C8.70693821 6.99581463 8.60782079 10.3000719 8.5625 14.0625 C8.541875 16.475625 8.52125 18.88875 8.5 21.375 C2.23 21.375 -4.04 21.375 -10.5 21.375 C-10.80292772 14.10473471 -10.86834366 7.69721089 -6.17578125 1.67578125 C-4.01227901 -0.00358063 -2.71511302 -0.02715113 0 0 Z " fill="#252A25" transform="translate(261.5,46.625)"/>
<path d="M0 0 C3.43558 2.29038667 3.87884558 3.12934783 5 7 C5.25757648 11.68274033 5.08774542 16.30561981 5 21 C-1.27 21 -7.54 21 -14 21 C-14.38393628 13.41725848 -14.16436544 7.53531803 -10 1 C-6.87293041 -0.5635348 -3.42017557 -0.39958487 0 0 Z " fill="#232924" transform="translate(48,47)"/>
<path d="M0 0 C3.37495058 0.02428022 5.14420406 0.59958588 7.75 2.75 C10.47332757 5.5397502 11.17360422 6.35643095 11.6875 10.125 C11.1653401 14.6503858 9.47020622 16.1421103 6.3125 19.375 C3.09790014 20.98229993 -0.21138103 20.99430855 -3.6875 20.375 C-6.625 17.9375 -6.625 17.9375 -8.6875 15.375 C-9.0175 15.045 -9.3475 14.715 -9.6875 14.375 C-9.98072866 11.44271337 -10.18754247 9.23008117 -9.6875 6.375 C-7.25 3.4375 -7.25 3.4375 -4.6875 1.375 C-3.6875 0.375 -3.6875 0.375 0 0 Z " fill="#F8F0E1" transform="translate(302.6875,81.625)"/>
<path d="M0 0 C2.8100346 1.79363911 4.50940468 3.01880935 6 6 C6.43023798 9.87214182 6.31669086 11.52496371 4.125 14.8125 C1.22424254 17.79857385 0.43881175 17.95683819 -3.8125 18.375 C-7.45869525 18.35511166 -7.92035679 18.06608692 -10.9375 15.5625 C-11.618125 14.716875 -12.29875 13.87125 -13 13 C-13.33 12.67 -13.66 12.34 -14 12 C-14.43784542 8.14696032 -14.30585252 6.45877878 -12.125 3.1875 C-8.54649133 -0.49625892 -4.96468334 -0.71331657 0 0 Z " fill="#F3ECDC" transform="translate(220,19)"/>
<path d="M0 0 C0.66 0.33 1.32 0.66 2 1 C-1.3 4.3 -4.6 7.6 -8 11 C-8 7.0234755 -6.61988497 5.9109833 -4 3 C-1.75 1.1875 -1.75 1.1875 0 0 Z " fill="#DBD5C7" transform="translate(28,48)"/>
<path d="M0 0 C0.66 0.33 1.32 0.66 2 1 C1.030625 1.845625 0.06125 2.69125 -0.9375 3.5625 C-4.20125576 6.78017921 -4.81523971 9.38099287 -5 14 C-5.33 14 -5.66 14 -6 14 C-6.61514196 6.74132492 -6.61514196 6.74132492 -3.5625 3.0625 C-2.716875 2.381875 -1.87125 1.70125 -1 1 C-0.67 0.67 -0.34 0.34 0 0 Z " fill="#C8C3B6" transform="translate(299,82)"/>
</svg>
