 <svg version="1.0" xmlns="http://www.w3.org/2000/svg"  width="400" height="130" viewBox="0 0 290.000000 75.000000"  preserveAspectRatio="xMidYMid meet">  <g transform="translate(0.000000,75.000000) scale(0.100000,-0.100000)" fill="#a80505" stroke="none"> <path d="M512 630 c-82 -50 -82 -200 0 -250 69 -42 168 -15 173 48 2 28 0 32 -21 32 -17 0 -24 -6 -24 -20 0 -43 -68 -53 -105 -15 -21 20 -25 34 -25 80 0 46 4 60 25 80 37 38 105 28 105 -15 0 -14 7 -20 23 -20 18 0 22 5 21 32 -2 60 -104 89 -172 48z"/> <path d="M1070 635 c0 -8 7 -15 15 -15 12 0 15 -19 15 -110 0 -91 -3 -110 -15 -110 -8 0 -15 -9 -15 -20 0 -18 7 -20 55 -20 48 0 55 2 55 20 0 11 -4 20 -10 20 -6 0 -10 48 -10 125 l0 125 -45 0 c-33 0 -45 -4 -45 -15z"/> <path d="M2160 631 l-65 -17 4 -149 c3 -165 4 -166 72 -185 35 -10 99 -4 99 9 -1 3 -26 24 -57 45 -53 37 -55 40 -35 49 l21 10 -20 39 c-11 22 -18 42 -15 45 3 3 19 0 37 -6 45 -16 49 -14 49 17 1 27 1 27 41 -18 45 -49 44 -55 14 63 -7 26 -10 47 -8 47 2 0 15 -7 29 -16 29 -20 33 -17 55 41 l17 45 -86 -1 c-48 0 -116 -8 -152 -18z m190 -31 c0 -17 -3 -18 -25 -8 -35 16 -58 -5 -50 -44 5 -22 4 -27 -9 -22 -8 3 -22 -3 -32 -14 -13 -16 -23 -18 -45 -12 -41 12 -56 -9 -41 -57 11 -37 1 -70 -18 -58 -8 5 -2 196 6 204 9 9 121 29 167 30 40 1 47 -2 47 -19z m-160 -280 c6 0 8 -4 5 -10 -10 -16 -65 18 -65 40 0 17 2 17 25 -5 13 -14 29 -25 35 -25z"/> <path d="M2429 605 c22 -58 26 -61 55 -41 14 9 27 16 29 16 2 0 -4 -32 -14 -72 -10 -40 -17 -73 -16 -74 1 -2 17 15 35 37 30 35 33 44 30 91 -3 57 0 55 -110 81 l-26 7 17 -45z"/> <path d="M1410 600 c0 -16 -4 -30 -10 -30 -5 0 -10 -9 -10 -20 0 -11 5 -20 10 -20 6 0 10 -28 10 -65 0 -75 20 -105 70 -105 25 0 30 4 30 25 0 19 -5 25 -17 23 -15 -3 -19 7 -23 60 -4 54 -3 62 13 62 10 0 17 8 17 20 0 13 -7 20 -18 20 -15 0 -18 6 -14 30 4 28 2 30 -27 30 -28 0 -31 -3 -31 -30z m40 -49 c0 -6 -4 -13 -10 -16 -5 -3 -10 1 -10 9 0 9 5 16 10 16 6 0 10 -4 10 -9z"/> <path d="M2392 593 c-18 -59 -26 -67 -51 -54 -25 14 -24 15 -6 -69 20 -91 20 -91 -30 -35 -39 44 -44 47 -45 27 0 -19 -4 -22 -20 -18 -11 3 -29 9 -41 12 l-20 6 21 -41 c17 -34 18 -41 5 -41 -25 0 -16 -13 36 -51 l50 -37 47 15 c30 9 74 13 123 10 l77 -4 6 45 c3 25 6 63 6 86 l-1 41 -48 -55 c-50 -55 -61 -82 -18 -42 32 30 39 28 35 -10 -3 -32 -5 -33 -43 -30 -22 1 -72 -5 -112 -13 -93 -21 -123 -7 -137 61 -7 30 -6 31 29 29 26 0 42 -8 54 -24 14 -18 23 -22 40 -16 20 6 22 12 16 39 -16 77 -16 78 5 93 11 8 20 21 20 29 0 20 4 18 41 -18 31 -31 32 -34 20 -75 -13 -52 -14 -63 -2 -63 5 0 15 26 21 58 6 31 14 68 17 81 5 21 4 22 -17 11 -26 -14 -27 -14 -49 44 l-18 47 -11 -38z"/> <path d="M1593 572 c-34 -5 -73 -58 -73 -98 0 -99 96 -149 161 -85 24 25 29 38 29 79 0 33 -6 57 -17 71 -20 23 -66 39 -100 33z m57 -61 c15 -29 12 -77 -6 -95 -18 -19 -20 -19 -45 -6 -19 11 -27 68 -13 104 9 22 51 20 64 -3z"/> <path d="M1827 560 c-20 -16 -25 -17 -21 -6 5 13 -2 16 -40 16 -33 0 -46 -4 -46 -14 0 -8 7 -16 16 -18 23 -4 30 -126 8 -135 -8 -3 -14 -13 -14 -22 0 -13 10 -16 50 -16 41 0 50 3 50 18 0 9 -5 17 -10 17 -7 0 -10 24 -8 63 3 62 3 62 33 62 30 0 30 0 33 -62 2 -52 0 -63 -13 -63 -8 0 -15 -7 -15 -15 0 -12 13 -15 55 -15 42 0 55 3 55 15 0 8 -7 15 -15 15 -12 0 -15 14 -15 68 0 39 -5 75 -12 85 -22 27 -61 31 -91 7z"/> <path d="M738 559 c-25 -14 -24 -59 1 -59 10 0 22 7 25 16 9 25 60 14 64 -13 3 -20 -1 -23 -35 -23 -21 0 -49 -7 -61 -16 -27 -19 -29 -64 -4 -87 22 -20 72 -22 91 -4 11 10 14 10 18 0 3 -7 18 -13 34 -13 22 0 29 5 29 20 0 11 -4 20 -10 20 -6 0 -10 30 -10 69 0 61 -3 72 -22 85 -25 18 -94 21 -120 5z m92 -129 c0 -23 -45 -39 -62 -22 -16 16 8 42 38 42 17 0 24 -6 24 -20z"/> <path d="M920 550 c0 -11 7 -20 15 -20 12 0 15 -14 15 -65 0 -51 -3 -65 -15 -65 -8 0 -15 -9 -15 -20 0 -18 7 -20 55 -20 48 0 55 2 55 20 0 11 -7 20 -15 20 -13 0 -15 11 -13 58 3 53 5 57 29 60 19 2 28 10 32 28 3 20 0 24 -19 24 -13 0 -28 -8 -33 -17 -10 -17 -10 -17 -11 0 0 13 -9 17 -40 17 -33 0 -40 -3 -40 -20z"/> <path d="M1225 545 c-21 -20 -25 -34 -25 -79 0 -49 3 -57 32 -81 27 -23 39 -26 76 -22 49 5 65 16 57 39 -5 13 -12 14 -41 5 -28 -9 -37 -7 -54 8 -32 29 -24 35 45 35 71 0 72 1 55 62 -12 43 -34 58 -85 58 -25 0 -43 -8 -60 -25z m93 -27 c20 -20 14 -28 -23 -28 -38 0 -38 0 -29 24 7 19 35 21 52 4z m-86 -60 c-8 -8 -9 -4 -5 13 4 13 8 18 11 10 2 -7 -1 -18 -6 -23z"/> <path d="M1220 285 c0 -8 7 -15 15 -15 8 0 15 7 15 15 0 8 -7 15 -15 15 -8 0 -15 -7 -15 -15z"/> <path d="M1710 287 c0 -8 7 -14 15 -14 8 0 15 6 15 14 0 7 -7 13 -15 13 -8 0 -15 -6 -15 -13z"/> <path d="M900 280 c0 -5 5 -10 10 -10 6 0 10 -24 10 -53 0 -61 19 -87 63 -87 41 0 57 24 57 86 0 30 5 54 10 54 6 0 10 5 10 10 0 6 -16 10 -35 10 -19 0 -35 -4 -35 -10 0 -5 5 -10 10 -10 6 0 10 -24 10 -54 0 -57 -18 -78 -46 -55 -16 13 -19 109 -4 109 6 0 10 5 10 10 0 6 -16 10 -35 10 -19 0 -35 -4 -35 -10z"/> <path d="M2112 279 c2 -7 20 -20 38 -31 27 -14 57 -18 136 -18 59 0 121 -6 149 -15 44 -13 50 -13 61 3 22 30 -43 45 -151 36 -126 -10 -163 -7 -202 16 -19 11 -33 15 -31 9z"/> <path d="M1773 266 c3 -8 1 -17 -6 -20 -9 -5 -9 -7 0 -12 8 -3 10 -16 7 -33 -3 -16 -1 -38 5 -50 13 -24 51 -29 51 -6 0 8 -6 15 -13 15 -8 0 -13 13 -14 35 -1 24 3 35 13 35 8 0 14 5 14 10 0 6 -7 10 -15 10 -9 0 -12 6 -9 15 4 11 0 15 -16 15 -15 0 -20 -5 -17 -14z"/> <path d="M1060 240 c0 -5 5 -10 10 -10 6 0 10 -18 10 -40 0 -22 -5 -40 -11 -40 -5 0 -7 -4 -4 -10 3 -5 19 -10 36 -10 16 0 29 5 29 10 0 6 -5 10 -11 10 -6 0 -9 16 -7 38 2 25 8 37 18 37 11 0 15 -12 14 -47 l0 -47 63 0 c35 0 63 4 63 10 0 5 -4 9 -10 9 -5 0 -10 23 -10 50 0 47 -2 50 -25 50 -14 0 -25 -4 -25 -10 0 -5 5 -10 10 -10 6 0 10 -18 10 -40 0 -33 -3 -40 -20 -40 -17 0 -20 7 -20 39 0 48 -22 71 -51 53 -11 -7 -19 -8 -19 -2 0 5 -11 10 -25 10 -14 0 -25 -4 -25 -10z"/> <path d="M1275 233 c4 -10 14 -37 22 -60 8 -24 21 -43 28 -43 9 0 55 95 55 116 0 2 -12 4 -26 4 -20 0 -25 -4 -20 -16 3 -8 3 -27 -1 -42 l-6 -26 -9 24 c-5 12 -6 31 -3 41 5 15 1 19 -20 19 -22 0 -26 -3 -20 -17z"/> <path d="M1400 231 c-32 -62 24 -127 80 -91 13 8 12 10 -1 15 -9 3 -20 5 -25 4 -19 -3 -34 1 -34 11 0 6 16 10 35 10 28 0 35 4 35 19 0 46 -69 70 -90 32z m58 -19 c2 -7 -6 -12 -17 -12 -21 0 -27 11 -14 24 9 9 26 2 31 -12z"/> <path d="M1500 240 c0 -5 4 -10 9 -10 11 0 9 -65 -2 -76 -15 -15 -6 -24 23 -24 29 0 38 9 23 23 -15 15 -9 60 9 65 10 2 18 11 18 18 0 17 -12 18 -28 2 -9 -9 -12 -9 -12 0 0 7 -9 12 -20 12 -11 0 -20 -4 -20 -10z"/> <path d="M1603 244 c-25 -11 -14 -45 17 -57 17 -6 30 -15 30 -19 0 -14 -22 -20 -33 -9 -15 15 -27 14 -27 -4 0 -20 43 -29 69 -15 31 16 26 46 -9 59 -31 10 -41 31 -15 31 8 0 15 -4 15 -10 0 -5 7 -10 16 -10 9 0 14 7 12 18 -3 17 -49 27 -75 16z"/> <path d="M1690 240 c0 -5 5 -10 10 -10 6 0 10 -15 10 -34 0 -19 -4 -38 -10 -41 -20 -12 -10 -25 19 -25 31 0 49 14 31 25 -5 3 -10 26 -10 51 0 40 -2 44 -25 44 -14 0 -25 -4 -25 -10z"/> <path d="M1845 233 c40 -98 41 -104 22 -117 -23 -17 -22 -26 4 -26 15 0 25 13 40 48 18 41 34 78 47 105 2 4 -10 7 -27 7 -29 0 -43 -14 -22 -22 5 -2 4 -14 -1 -28 l-10 -25 -9 23 c-4 12 -6 29 -3 37 5 11 -1 15 -21 15 -22 0 -26 -3 -20 -17z"/> <path d="M2153 208 c30 -39 66 -67 124 -97 45 -23 60 -21 123 18 l34 20 -44 20 c-25 11 -80 24 -123 30 -43 6 -92 18 -109 27 l-30 16 25 -34z m170 -53 c21 -3 35 -10 32 -16 -10 -16 -62 -10 -86 10 -22 18 -22 20 -4 16 11 -2 37 -7 58 -10z"/> 
 </g> </svg> 