<?xml version="1.0" encoding="UTF-8"?>
<svg version="1.1" xmlns="http://www.w3.org/2000/svg" width="222" height="100" viewBox="0 0 222 130">
<path d="M0 0 C2.578125 2.28515625 2.578125 2.28515625 5.25 5.0625 C6.14203125 5.98160156 7.0340625 6.90070312 7.953125 7.84765625 C8.62859375 8.55792969 9.3040625 9.26820312 10 10 C10.83917969 9.67515625 10.83917969 9.67515625 11.6953125 9.34375 C20.5451712 6.27048717 29.8536488 5.87214344 39 8 C39.47050781 7.4225 39.94101563 6.845 40.42578125 6.25 C41.04839844 5.5075 41.67101562 4.765 42.3125 4 C43.23482422 2.88625 43.23482422 2.88625 44.17578125 1.75 C46 0 46 0 49 0 C51.10588821 1.71402549 53.04661627 3.43733154 55 5.3125 C55.56871826 5.85140869 56.13743652 6.39031738 56.72338867 6.94555664 C57.90294626 8.06775073 59.0789344 9.19370776 60.25146484 10.32324219 C61.91939792 11.92270663 63.60734394 13.49794447 65.30078125 15.0703125 C66.30580715 16.02486419 67.30976573 16.98054128 68.3125 17.9375 C69.21613281 18.79214844 70.11976562 19.64679687 71.05078125 20.52734375 C73 23 73 23 73.515625 25.54296875 C72.84850926 28.72187635 71.67692073 30.02422686 69.4375 32.375 C68.633125 33.22578125 67.82875 34.0765625 67 34.953125 C66.00260035 35.97130381 65.00230023 36.98664499 64 38 C63.37351562 38.63486328 62.74703125 39.26972656 62.1015625 39.92382812 C57.7612836 44.30983793 53.39132927 48.66513689 49 53 C48.56067139 52.55889893 48.12134277 52.11779785 47.66870117 51.66333008 C43.97604564 48.00804532 43.97604564 48.00804532 39.11328125 46.88671875 C38.18902344 47.15097656 37.26476563 47.41523437 36.3125 47.6875 C27.62961279 49.63627768 20.49404175 49.64179483 12.75 45 C9.99694865 43.57738977 8.13754353 42.73370555 5.05810547 43.45458984 C1.45010853 44.79191365 -1.90531847 46.49447425 -5.30078125 48.29296875 C-8.63399061 50.01191165 -11.21410434 50.35804595 -15 50 C-15.2250144 44.09688774 -14.36964701 38.69709331 -13.25 32.91015625 C-13.07243164 31.96563095 -12.89486328 31.02110565 -12.71191406 30.04795837 C-12.14721074 27.05164714 -11.5737448 24.05709167 -11 21.0625 C-10.61400214 19.02289636 -10.22857932 16.98318381 -9.84375 14.94335938 C-8.90248458 9.96095428 -7.95336051 4.98010429 -7 0 C-3.75886353 -1.08037882 -3.06080372 -1.25671686 0 0 Z M2 17 C2.33 18.32 2.66 19.64 3 21 C3.33 20.01 3.66 19.02 4 18 C3.34 17.67 2.68 17.34 2 17 Z M19 19 C20.32 20.32 21.64 21.64 23 23 C26.36720387 21.60667426 27.9859524 20.0210714 30 17 C28.1128125 16.938125 28.1128125 16.938125 26.1875 16.875 C25.47980469 16.85179688 24.77210937 16.82859375 24.04296875 16.8046875 C21.68640281 16.86745538 21.68640281 16.86745538 19 19 Z M50 17 C50.15339844 17.52078125 50.30679688 18.0415625 50.46484375 18.578125 C51.13982511 21.63278515 51.34411118 24.63015971 51.5625 27.75 C51.64628906 28.92046875 51.73007813 30.0909375 51.81640625 31.296875 C51.87699219 32.18890625 51.93757813 33.0809375 52 34 C54.93922361 31.14021487 57.58682597 28.31192213 60 25 C58.52351062 23.66370254 57.0437367 22.33103329 55.5625 21 C54.73878906 20.2575 53.91507812 19.515 53.06640625 18.75 C51.32412545 16.89228908 51.32412545 16.89228908 50 17 Z M1 22 C0.34 25.96 -0.32 29.92 -1 34 C-0.01 33.67 0.98 33.34 2 33 C2 29.37 2 25.74 2 22 C1.67 22 1.34 22 1 22 Z M40 22 C39.01 22.99 38.02 23.98 37 25 C38.36983503 28.16115776 38.9890638 28.9927092 42 31 C42.66 30.34 43.32 29.68 44 29 C43.90888062 26.46048456 43.90888062 26.46048456 43 24 C42.01 23.34 41.02 22.68 40 22 Z M10 26 C10.33 26.99 10.66 27.98 11 29 C11.99 28.67 12.98 28.34 14 28 C12.68 27.34 11.36 26.68 10 26 Z M25 34 C24.01 34.99 23.02 35.98 22 37 C24.97 37 27.94 37 31 37 C30.34 36.01 29.68 35.02 29 34 C27.68 34 26.36 34 25 34 Z " fill="#0260A8" transform="translate(26,44)"/>
<path d="M0 0 C0.81210938 -0.020625 1.62421875 -0.04125 2.4609375 -0.0625 C7.24767973 -0.09368399 10.34433046 0.17913006 14.25 3.25 C14.91 3.91 15.57 4.57 16.25 5.25 C17.03375 4.610625 17.8175 3.97125 18.625 3.3125 C22.63818603 0.1592824 24.67620626 0.13698657 29.75 0.1875 C31.49796875 0.20103516 31.49796875 0.20103516 33.28125 0.21484375 C34.2609375 0.22644531 35.240625 0.23804688 36.25 0.25 C36.91 0.25 37.57 0.25 38.25 0.25 C46.58333333 0.25 54.91666667 0.25 63.25 0.25 C62.92 3.22 62.59 6.19 62.25 9.25 C59.94 9.58 57.63 9.91 55.25 10.25 C54.26 14.87 53.27 19.49 52.25 24.25 C53.9 24.58 55.55 24.91 57.25 25.25 C56.9375 27.1875 56.9375 27.1875 56.25 29.25 C50.9152551 31.0282483 44.85531908 30.25 39.25 30.25 C39.85299164 23.01410027 41.3650587 16.25629124 43.25 9.25 C42.44175781 9.26160156 41.63351563 9.27320312 40.80078125 9.28515625 C39.73214844 9.29417969 38.66351563 9.30320312 37.5625 9.3125 C35.97888672 9.32990234 35.97888672 9.32990234 34.36328125 9.34765625 C31.52589738 9.25865425 29.0061081 8.89939838 26.25 8.25 C26.25 8.91 26.25 9.57 26.25 10.25 C27.1575 10.476875 28.065 10.70375 29 10.9375 C32.83418636 12.48592141 34.24560868 13.64209563 36.25 17.25 C36.37495608 20.74877024 36.29061495 23.07365266 33.90234375 25.7734375 C29.42319964 29.58126026 26.89909098 30.37452846 21.1484375 30.34765625 C19.93671875 30.34443359 18.725 30.34121094 17.4765625 30.33789062 C16.20554688 30.32951172 14.93453125 30.32113281 13.625 30.3125 C12.34625 30.30798828 11.0675 30.30347656 9.75 30.29882812 C6.58328708 30.28701203 3.41666644 30.27053815 0.25 30.25 C-1.2106285 27.60261084 -1.75 26.35551666 -1.75 23.25 C-2.41 23.25 -3.07 23.25 -3.75 23.25 C-4.08 25.56 -4.41 27.87 -4.75 30.25 C-8.38 30.25 -12.01 30.25 -15.75 30.25 C-14.66568489 23.11159222 -13.32889887 16.09038822 -11.6875 9.0625 C-11.5131543 8.30783447 -11.33880859 7.55316895 -11.15917969 6.77563477 C-9.35019076 -0.83065828 -7.32909977 0.04566417 0 0 Z M36.25 2.25 C37.25 5.25 37.25 5.25 37.25 5.25 Z M0.25 8.25 C-0.08 10.23 -0.41 12.21 -0.75 14.25 C1.24983534 13.45882096 1.24983534 13.45882096 3.25 12.25 C3.58 11.26 3.91 10.27 4.25 9.25 C2.93 8.92 1.61 8.59 0.25 8.25 Z M14.25 12.25 C14.023125 12.848125 13.79625 13.44625 13.5625 14.0625 C11.91188867 16.81351888 10.0527919 17.77484637 7.25 19.25 C8.57 21.89 9.89 24.53 11.25 27.25 C13.62158027 25.2214169 13.62158027 25.2214169 14.25 21.25 C17.22 21.58 20.19 21.91 23.25 22.25 C23.25 21.26 23.25 20.27 23.25 19.25 C22.13625 18.651875 21.0225 18.05375 19.875 17.4375 C16.96187472 15.87304383 16.18395001 15.15092502 14.25 12.25 Z " fill="#1C1C1A" transform="translate(147.75,54.75)"/>
<path d="M0 0 C1.90356445 1.57885742 1.90356445 1.57885742 3.86328125 3.60546875 C4.58580078 4.34216797 5.30832031 5.07886719 6.05273438 5.83789062 C6.79845703 6.61326172 7.54417969 7.38863281 8.3125 8.1875 C9.78527591 9.70423937 11.2605054 11.21860046 12.73828125 12.73046875 C13.45105225 13.46007813 14.16382324 14.1896875 14.89819336 14.94140625 C17.35475481 17.34746109 19.93971494 19.52478881 22.64599609 21.64331055 C24.98646553 23.98842209 25.35716467 26.84426294 26 30 C26.62469505 31.35350594 27.2716331 32.69934483 28 34 C24.18538362 35.79511359 21.21411291 36.53797186 17 36 C14.625 34 14.625 34 13 32 C14.98 30.68 16.96 29.36 19 28 C18.50371094 27.57589844 18.00742187 27.15179688 17.49609375 26.71484375 C13.29973508 23.09180163 9.29370054 19.37439638 5.4453125 15.3828125 C4.02890223 13.89145515 4.02890223 13.89145515 2 13 C2.18030762 13.57290771 2.36061523 14.14581543 2.54638672 14.73608398 C3.04780316 17.23857844 2.8338841 18.75134814 2.2578125 21.22265625 C2.07863281 22.00833984 1.89945313 22.79402344 1.71484375 23.60351562 C1.42287109 24.82071289 1.42287109 24.82071289 1.125 26.0625 C0.93808594 26.87783203 0.75117188 27.69316406 0.55859375 28.53320312 C-0.18612785 31.74712576 -0.95587857 34.86763571 -2 38 C-0.02 37.34 1.96 36.68 4 36 C5.32 37.98 6.64 39.96 8 42 C-6.41230068 49.85193622 -6.41230068 49.85193622 -15 50 C-15.2250144 44.09688774 -14.36964701 38.69709331 -13.25 32.91015625 C-13.07243164 31.96563095 -12.89486328 31.02110565 -12.71191406 30.04795837 C-12.14721074 27.05164714 -11.5737448 24.05709167 -11 21.0625 C-10.61400214 19.02289636 -10.22857932 16.98318381 -9.84375 14.94335938 C-8.90248458 9.96095428 -7.95336051 4.98010429 -7 0 C-3.80667924 -1.06444025 -3.03284777 -1.16331864 0 0 Z " fill="#E11113" transform="translate(26,44)"/>
<path d="M0 0 C3.99246719 1.59509919 6.63200086 4.40417633 9.5625 7.4375 C10.04396484 7.92798828 10.52542969 8.41847656 11.02148438 8.92382812 C12.35116691 10.27911665 13.67577222 11.63938123 15 13 C15.99787912 14.00211639 16.99662735 15.00338407 18 16 C16.02 16.99 14.04 17.98 12 19 C14.44605257 21.961011 16.25861006 22.43215784 20 23 C26.87843105 23.48730029 33.06163095 23.79044833 39 20 C41.15138089 17.17631259 42.08875294 15.29801172 41.84375 11.71484375 C41.62021715 10.15265395 41.35151167 8.59604381 41.03125 7.05078125 C41 5 41 5 42.46875 3.23046875 C42.9740625 2.82441406 43.479375 2.41835938 44 2 C46.40058903 2.96023561 47.74016499 3.58889118 49.140625 5.8046875 C50.62531254 9.5973893 49.9332655 13.11139377 49 17 C45.57663953 23.47993231 40.68735081 27.20010572 34 30 C31.05295149 30.46668699 28.16759951 30.52424614 25.1875 30.5 C24.38868408 30.49500488 23.58986816 30.49000977 22.7668457 30.48486328 C15.48968044 30.26945265 10.83617021 28.47354716 5.4296875 23.578125 C2.1749019 20.11875288 0.81032789 16.61886895 0 12 C0.28241883 9.6599583 0.61250787 7.32495277 1 5 C0.64025105 2.18762459 0.64025105 2.18762459 0 0 Z M8 13 C8.33 13.99 8.66 14.98 9 16 C9.99 15.67 10.98 15.34 12 15 C10.68 14.34 9.36 13.68 8 13 Z " fill="#FDFDFD" transform="translate(28,57)"/>
<path d="M0 0 C0.83265381 0.00523682 1.66530762 0.01047363 2.52319336 0.01586914 C3.42231445 0.0190918 4.32143555 0.02231445 5.24780273 0.02563477 C6.66609375 0.03820313 6.66609375 0.03820313 8.11303711 0.05102539 C9.06243164 0.05553711 10.01182617 0.06004883 10.98999023 0.06469727 C13.34356776 0.07652429 15.69702188 0.09300514 18.05053711 0.11352539 C17.17553711 7.98852539 17.17553711 7.98852539 16.05053711 9.11352539 C14.53125673 9.18532503 13.00886229 9.19744546 11.48803711 9.17602539 C10.66174805 9.16700195 9.83545898 9.15797852 8.98413086 9.14868164 C8.34604492 9.13708008 7.70795898 9.12547852 7.05053711 9.11352539 C7.05053711 9.77352539 7.05053711 10.43352539 7.05053711 11.11352539 C10.02053711 11.44352539 12.99053711 11.77352539 16.05053711 12.11352539 C15.39053711 14.75352539 14.73053711 17.39352539 14.05053711 20.11352539 C10.75053711 20.11352539 7.45053711 20.11352539 4.05053711 20.11352539 C3.90616211 21.39227539 3.76178711 22.67102539 3.61303711 23.98852539 C3.34410965 26.37045433 3.12827365 27.9580523 2.05053711 30.11352539 C-1.57946289 30.11352539 -5.20946289 30.11352539 -8.94946289 30.11352539 C-7.86514779 22.97511761 -6.52836176 15.95391361 -4.88696289 8.92602539 C-4.71261719 8.17135986 -4.53827148 7.41669434 -4.35864258 6.63916016 C-2.8187031 0.16414489 -2.8187031 0.16414489 0 0 Z " fill="#1C1C1A" transform="translate(105.949462890625,54.886474609375)"/>
<path d="M0 0 C0.58398438 1.87182617 0.58398438 1.87182617 1 4 C-0.34375 6.05078125 -0.34375 6.05078125 -2.5 8.3125 C-3.31339844 9.17230469 -4.12679687 10.03210938 -4.96484375 10.91796875 C-5.97398078 11.94784858 -6.98598984 12.97491785 -8 14 C-8.62793457 14.63631348 -9.25586914 15.27262695 -9.90283203 15.92822266 C-14.2416484 20.31276547 -18.6101449 24.66659209 -23 29 C-23.43932861 28.55889893 -23.87865723 28.11779785 -24.33129883 27.66333008 C-28.02395436 24.00804532 -28.02395436 24.00804532 -32.88671875 22.88671875 C-33.81097656 23.15097656 -34.73523437 23.41523437 -35.6875 23.6875 C-45.21410508 25.82831013 -53.31590676 25.18008387 -61.9296875 20.40234375 C-64.57634739 18.6096062 -66.36625623 16.74765998 -68 14 C-68 13.34 -68 12.68 -68 12 C-69.98 12.66 -71.96 13.32 -74 14 C-73.625 12.0625 -73.625 12.0625 -73 10 C-72.34 9.67 -71.68 9.34 -71 9 C-70.53476937 7.10466658 -70.53476937 7.10466658 -70.375 4.9375 C-70.25125 3.638125 -70.1275 2.33875 -70 1 C-69.67 1 -69.34 1 -69 1 C-68.85304688 1.59167969 -68.70609375 2.18335937 -68.5546875 2.79296875 C-66.47931947 10.10446646 -63.8557382 12.66835891 -57.3515625 16.6015625 C-53.15792696 18.35135448 -49.68645364 18.53613806 -45.1875 18.5 C-44.38940918 18.49572998 -43.59131836 18.49145996 -42.76904297 18.48706055 C-34.94488193 18.26088715 -30.15440649 16.07352427 -24.5625 10.625 C-22.66202636 7.43220428 -21.84957624 4.610699 -21 1 C-20.67 1 -20.34 1 -20 1 C-19.49492039 7.31349516 -19.84793556 10.89889226 -24 16 C-24.5775 16.78375 -25.155 17.5675 -25.75 18.375 C-26.1625 18.91125 -26.575 19.4475 -27 20 C-26.01 20.99 -25.02 21.98 -24 23 C-20.75099283 21.91699761 -20.25293388 21.36840631 -18.1875 18.8125 C-12.55346346 12.1418983 -6.20745628 6.1299707 0 0 Z " fill="#A09D9C" transform="translate(98,68)"/>
<path d="M0 0 C3.63 0 7.26 0 11 0 C9.91568489 7.13840778 8.57889887 14.15961178 6.9375 21.1875 C6.7631543 21.94216553 6.58880859 22.69683105 6.40917969 23.47436523 C5.12468236 28.87531764 5.12468236 28.87531764 4 30 C2.14712498 30.07226502 0.29166122 30.0838122 -1.5625 30.0625 C-2.57441406 30.05347656 -3.58632812 30.04445313 -4.62890625 30.03515625 C-5.41136719 30.02355469 -6.19382812 30.01195313 -7 30 C-4.94082008 19.91315421 -2.86806299 9.8948173 0 0 Z " fill="#1C1C1A" transform="translate(126,55)"/>
<path d="M0 0 C-2.47620914 17.11923725 -5.44313472 34.07195597 -9 51 C-10.32 51 -11.64 51 -13 51 C-13.2250144 45.09688774 -12.36964701 39.69709331 -11.25 33.91015625 C-11.07243164 32.96563095 -10.89486328 32.02110565 -10.71191406 31.04795837 C-10.14721074 28.05164714 -9.5737448 25.05709167 -9 22.0625 C-8.61400214 20.02289636 -8.22857932 17.98318381 -7.84375 15.94335938 C-6.90248458 10.96095428 -5.95336051 5.98010429 -5 1 C-2 0 -2 0 0 0 Z " fill="#A09A97" transform="translate(24,43)"/>
<path d="M0 0 C4.07376031 1.61010527 6.76507069 4.53822271 9.75 7.625 C10.25660156 8.140625 10.76320313 8.65625 11.28515625 9.1875 C12.52803902 10.45383339 13.76465276 11.7263144 15 13 C14.67 13.99 14.34 14.98 14 16 C6.49202733 10.53302961 6.49202733 10.53302961 3.75 7.5625 C2.11877984 5.7459156 2.11877984 5.7459156 -0.1875 6.0625 C-2.36058256 6.9194894 -2.36058256 6.9194894 -3 10 C-2.72230092 12.3406065 -2.39460023 14.67624308 -2 17 C-3.65 15.68 -5.3 14.36 -7 13 C-7.99 13.99 -8.98 14.98 -10 16 C-10.99 15.67 -11.98 15.34 -13 15 C-9.09489511 9.49280079 -4.90282356 4.64172645 0 0 Z " fill="#9F9C9C" transform="translate(73,54)"/>
<path d="M0 0 C1.216875 -0.00257812 2.43375 -0.00515625 3.6875 -0.0078125 C6.34750011 0.09883845 8.48228971 0.33192126 11 1.125 C10.25 3.0625 10.25 3.0625 9 5.125 C5.97873081 6.20545388 3.24210003 6.17518228 0.0625 6.0625 C-3.84096692 6.00518037 -6.40948334 6.54094853 -10 8.125 C-12.1875 7.9375 -12.1875 7.9375 -14 7.125 C-14.66 6.135 -15.32 5.145 -16 4.125 C-10.41747067 0.55838404 -6.622851 -0.01403146 0 0 Z " fill="#FEFEFE" transform="translate(53,50.875)"/>
<path d="M0 0 C3.99246719 1.59509919 6.63200086 4.40417633 9.5625 7.4375 C10.04396484 7.92798828 10.52542969 8.41847656 11.02148438 8.92382812 C12.35116691 10.27911665 13.67577222 11.63938123 15 13 C15.99787912 14.00211639 16.99662735 15.00338407 18 16 C12.375 19 12.375 19 9 19 C9 18.01 9 17.02 9 16 C9.66 15.67 10.32 15.34 11 15 C10.38125 14.95875 9.7625 14.9175 9.125 14.875 C8.073125 14.441875 8.073125 14.441875 7 14 C6.31974363 12.00458132 5.65509503 10.00382009 5 8 C3.35305515 6.31384218 1.68873879 4.64429829 0 3 C0 2.01 0 1.02 0 0 Z " fill="#A69A96" transform="translate(28,57)"/>
<path d="M0 0 C-0.5234375 1.953125 -0.5234375 1.953125 -2 4 C-4.66482841 4.46709352 -6.95070966 4.69572473 -9.625 4.75 C-10.68460938 4.79447266 -10.68460938 4.79447266 -11.765625 4.83984375 C-13.50980047 4.91055357 -15.25490827 4.95754035 -17 5 C-17.66 4.01 -18.32 3.02 -19 2 C-13.31643134 -0.96534017 -6.09816927 -3.04908464 0 0 Z " fill="#A3A09F" transform="translate(60,57)"/>
<path d="M0 0 C4.13621084 3.3810038 7.81316569 6.66590534 11 11 C9.68 11.33 8.36 11.66 7 12 C5.821389 10.76125579 4.65747085 9.5085199 3.5 8.25 C2.8503125 7.55390625 2.200625 6.8578125 1.53125 6.140625 C0 4 0 4 0 0 Z " fill="#9D9A9A" transform="translate(50,69)"/>
<path d="M0 0 C0.66 0.33 1.32 0.66 2 1 C-1.20156421 5.99067362 -3.31642687 8.75300597 -9 11 C-7.59155282 7.78475695 -5.89655214 5.67816132 -3.375 3.25 C-2.74335937 2.63640625 -2.11171875 2.0228125 -1.4609375 1.390625 C-0.73777344 0.70226563 -0.73777344 0.70226563 0 0 Z " fill="#94979F" transform="translate(73,54)"/>
</svg>
